<svg xmlns="http://www.w3.org/2000/svg" width="42" height="42" fill="none" xmlns:v="https://vecta.io/nano"><path fill-rule="evenodd" d="M10.5 0C16.299 0 21 4.701 21 10.5V0h10.5C37.299 0 42 4.701 42 10.5S37.299 21 31.5 21C37.299 21 42 25.701 42 31.5c0 2.879-1.159 5.488-3.036 7.385l-.039.04-.035.035C36.992 40.839 34.382 42 31.5 42c-2.862 0-5.457-1.145-7.351-3.002l-.074-.073-.069-.069C22.147 36.961 21 34.364 21 31.5 21 37.299 16.299 42 10.5 42S0 37.299 0 31.5V21h10.5C4.701 21 0 16.299 0 10.5S4.701 0 10.5 0zm8.4 10.5a8.4 8.4 0 0 1-8.4 8.4V2.1a8.4 8.4 0 0 1 8.4 8.4zm21 21a8.4 8.4 0 0 0-16.8 0h16.8zM2.1 23.1v8.4a8.4 8.4 0 0 0 16.8 0v-8.4H2.1zm21-4.2V2.1h8.4a8.4 8.4 0 1 1 0 16.8h-8.4z" fill="#6255a5"/></svg>