<svg xmlns="http://www.w3.org/2000/svg" width="33" height="24" fill="none" xmlns:v="https://vecta.io/nano"><path d="M9.8.4a2 2 0 0 1 1.483-.38A2 2 0 0 1 12.6.8a2 2 0 0 1 .38 1.483A2 2 0 0 1 12.2 3.6c-3.128 2.346-4.92 4.628-5.946 6.62a7 7 0 0 1 7.578 2.909 7 7 0 0 1-.265 8.113 7 7 0 0 1-7.751 2.409A7 7 0 0 1 1 17.116a15.13 15.13 0 0 1 1.016-7.228C3.21 6.876 5.544 3.592 9.8.4zm18 0a2 2 0 0 1 1.483-.38A2 2 0 0 1 30.6.8a2 2 0 0 1 .38 1.483A2 2 0 0 1 30.2 3.6c-3.128 2.346-4.92 4.628-5.946 6.62a7 7 0 0 1 7.578 2.909 7 7 0 0 1-.265 8.113 7 7 0 0 1-7.751 2.409A7 7 0 0 1 19 17.116a15.13 15.13 0 0 1 1.016-7.228C21.212 6.876 23.544 3.592 27.8.4z" fill="#1f3e72"/></svg>