<svg xmlns="http://www.w3.org/2000/svg" width="54" height="40" fill="none" xmlns:v="https://vecta.io/nano"><path d="M38.999 39.333a3.33 3.33 0 0 1-1.173.562c-.424.109-.865.133-1.299.071s-.85-.209-1.227-.432a3.33 3.33 0 0 1-1.531-2.041 3.33 3.33 0 0 1 .361-2.525 3.33 3.33 0 0 1 .868-.968c5.213-3.91 8.2-7.713 9.91-11.033-2.348.604-4.826.462-7.089-.407s-4.2-2.421-5.54-4.441-2.018-4.408-1.939-6.831.911-4.762 2.38-6.69 3.503-3.351 5.818-4.071 4.797-.7 7.101.056 4.314 2.211 5.753 4.163 2.233 4.303 2.274 6.727c.427 4.094-.154 8.23-1.693 12.047-1.99 5.02-5.88 10.493-12.973 15.813zm-30 0a3.33 3.33 0 0 1-1.173.562c-.424.109-.865.133-1.299.071s-.85-.209-1.227-.432-.706-.518-.968-.868-.454-.749-.562-1.173-.133-.865-.071-1.299.209-.85.432-1.227A3.33 3.33 0 0 1 4.999 34c5.213-3.91 8.2-7.713 9.91-11.033-2.348.604-4.826.462-7.089-.407s-4.2-2.421-5.54-4.441S.262 13.711.341 11.288s.911-4.762 2.38-6.69S6.224 1.247 8.539.527s4.797-.7 7.101.056 4.314 2.211 5.753 4.163 2.233 4.303 2.274 6.727c.427 4.094-.154 8.23-1.693 12.047-1.993 5.02-5.88 10.493-12.973 15.813z" fill="#85d1a0"/></svg>