<svg xmlns="http://www.w3.org/2000/svg" width="20" height="20" fill="none" xmlns:v="https://vecta.io/nano"><path d="M10.136.25C4.652.176.176 4.653.25 10.136a9.78 9.78 0 0 0 9.614 9.614c5.484.075 9.96-4.402 9.885-9.885A9.78 9.78 0 0 0 10.136.25zm-.787 9.022l2.416-2.766a.75.75 0 0 1 1.059-.071.75.75 0 0 1 .071 1.058l-2.416 2.766a.75.75 0 0 1-.514.255.75.75 0 0 1-.544-.184.75.75 0 0 1-.255-.514.75.75 0 0 1 .184-.544zm-1.822 4.259a.75.75 0 0 1-1.06 0l-2.248-2.25A.75.75 0 0 1 4 10.75a.75.75 0 0 1 .22-.53.75.75 0 0 1 .53-.22.75.75 0 0 1 .53.22l2.25 2.25a.75.75 0 0 1-.003 1.06zm8.288-6.037l-5.244 6a.75.75 0 0 1-.539.256h-.025a.75.75 0 0 1-.531-.22l-2.247-2.25a.75.75 0 0 1 0-1.061.75.75 0 0 1 1.061.001l1.397 1.398c.036.036.08.065.127.084s.099.028.15.026.102-.014.148-.036.088-.053.122-.092l4.453-5.093a.75.75 0 0 1 1.058-.071.75.75 0 0 1 .071 1.058h-.001z" fill="#85d1a0"/></svg>