<svg width="33" height="24" viewBox="0 0 33 24" fill="none" xmlns="http://www.w3.org/2000/svg">
<path d="M9.79991 0.4C10.01 0.242414 10.2491 0.127756 10.5035 0.0625729C10.758 -0.0026103 11.0227 -0.0170424 11.2828 0.020101C11.5428 0.0572444 11.7929 0.145236 12.0189 0.279051C12.2449 0.412867 12.4423 0.589886 12.5999 0.800001C12.7575 1.01012 12.8722 1.24921 12.9373 1.50364C13.0025 1.75807 13.017 2.02284 12.9798 2.28284C12.9427 2.54285 12.8547 2.79299 12.7209 3.01899C12.587 3.24499 12.41 3.44241 12.1999 3.6C9.07191 5.946 7.27991 8.228 6.25391 10.22C7.66265 9.85737 9.14937 9.94262 10.5074 10.4639C11.8655 10.9852 13.0274 11.9166 13.8317 13.1287C14.636 14.3408 15.0426 15.7734 14.9952 17.2273C14.9478 18.6812 14.4486 20.0842 13.567 21.2413C12.6854 22.3984 11.4652 23.2521 10.0761 23.6837C8.68696 24.1154 7.19784 24.1035 5.81573 23.6498C4.43363 23.1962 3.22719 22.3232 2.36412 21.1522C1.50105 19.9812 1.02422 18.5705 0.99991 17.116C0.743634 14.6599 1.09245 12.1783 2.01591 9.888C3.20991 6.876 5.54391 3.592 9.79991 0.4ZM27.7999 0.4C28.01 0.242414 28.2491 0.127756 28.5035 0.0625729C28.758 -0.0026103 29.0228 -0.0170424 29.2828 0.020101C29.5428 0.0572444 29.7929 0.145236 30.0189 0.279051C30.2449 0.412867 30.4423 0.589886 30.5999 0.800001C30.7575 1.01012 30.8722 1.24921 30.9373 1.50364C31.0025 1.75807 31.017 2.02284 30.9798 2.28284C30.9427 2.54285 30.8547 2.79299 30.7209 3.01899C30.587 3.24499 30.41 3.44241 30.1999 3.6C27.0719 5.946 25.2799 8.228 24.2539 10.22C25.6627 9.85737 27.1494 9.94262 28.5074 10.4639C29.8655 10.9852 31.0274 11.9166 31.8317 13.1287C32.636 14.3408 33.0426 15.7734 32.9952 17.2273C32.9478 18.6812 32.4486 20.0842 31.567 21.2413C30.6854 22.3984 29.4653 23.2521 28.0761 23.6837C26.687 24.1154 25.1978 24.1035 23.8157 23.6498C22.4336 23.1962 21.2272 22.3232 20.3641 21.1522C19.5011 19.9812 19.0242 18.5705 18.9999 17.116C18.7436 14.6599 19.0925 12.1783 20.0159 9.888C21.2119 6.876 23.5439 3.592 27.7999 0.4Z" fill="#1F3E72"/>
</svg>
